<?xml version="1.0" standalone="no"?>
<!DOCTYPE svg PUBLIC "-//W3C//DTD SVG 20010904//EN"
 "http://www.w3.org/TR/2001/REC-SVG-20010904/DTD/svg10.dtd">
<svg version="1.0" xmlns="http://www.w3.org/2000/svg"
 width="700.000000pt" height="700.000000pt" viewBox="0 0 700.000000 700.000000"
 preserveAspectRatio="xMidYMid meet">
<metadata>
Created by potrace 1.14, written by Peter Selinger 2001-2017
</metadata>
<g transform="translate(0.000000,700.000000) scale(0.100000,-0.100000)"
fill="#000000" stroke="none">
<path d="M1457 6989 c-267 -31 -542 -135 -757 -287 -107 -75 -312 -275 -380
-370 -153 -213 -249 -437 -298 -697 -15 -82 -17 -258 -20 -2055 -2 -1369 0
-2000 8 -2080 14 -151 33 -240 80 -381 187 -563 664 -975 1265 -1092 110 -21
118 -21 2050 -25 2054 -4 2118 -2 2317 42 554 126 1010 538 1188 1075 47 141
66 230 80 381 8 80 10 709 7 2085 -3 1814 -4 1977 -20 2055 -76 373 -233 662
-497 913 -259 246 -581 395 -945 437 -107 12 -3973 12 -4078 -1z m1163 -2174
c190 -45 358 -144 478 -284 31 -36 57 -67 57 -67 0 -1 34 4 75 12 400 71 818
-105 1042 -440 33 -50 63 -91 67 -91 3 1 40 7 80 14 105 19 313 10 409 -18
308 -89 550 -339 634 -651 30 -115 32 -319 4 -430 -72 -282 -270 -518 -526
-625 -176 -75 -74 -69 -1364 -73 -1295 -3 -1209 -7 -1366 70 -158 77 -294 248
-335 419 -19 84 -19 235 1 313 9 33 29 89 46 124 16 35 28 64 26 66 -1 1 -38
28 -80 60 -164 123 -275 293 -329 501 -32 126 -32 313 0 435 97 366 381 620
759 680 75 12 240 4 322 -15z"/>
</g>
</svg>
